<svg width="77" height="77" viewBox="0 0 77 77" fill="none" xmlns="http://www.w3.org/2000/svg">
<path d="M32.0833 52.9375V24.0625L51.3333 38.5L32.0833 52.9375ZM38.5 6.41663C34.2867 6.41663 30.1148 7.24649 26.2222 8.85882C22.3297 10.4712 18.7929 12.8344 15.8136 15.8136C9.79686 21.8304 6.41666 29.9909 6.41666 38.5C6.41666 47.009 9.79686 55.1695 15.8136 61.1863C18.7929 64.1655 22.3297 66.5288 26.2222 68.1411C30.1148 69.7534 34.2867 70.5833 38.5 70.5833C47.009 70.5833 55.1695 67.2031 61.1863 61.1863C67.2031 55.1695 70.5833 47.009 70.5833 38.5C70.5833 34.2867 69.7535 30.1147 68.1411 26.2222C66.5288 22.3297 64.1655 18.7928 61.1863 15.8136C58.2071 12.8344 54.6703 10.4712 50.7778 8.85882C46.8852 7.24649 42.7132 6.41663 38.5 6.41663V6.41663Z" fill="white"/>
</svg>
